<svg xmlns="http://www.w3.org/2000/svg" viewBox="0 0 1350 654" width="1350" height="654" role="img" aria-label="NXT.Bargains">
  <g transform="translate(0.000000,654.000000) scale(0.100000,-0.100000)" stroke="none">
    <path fill="#0d1b2a" d="M10305 6448 c-33 -35 -115 -121 -180 -193 -65 -71 -130 -142 -144
-156 -15 -14 -53 -55 -86 -91 -212 -227 -427 -455 -441 -466 -8 -8 -14 -18
-12 -24 3 -7 144 -10 417 -9 268 1 419 -3 432 -9 19 -11 19 -38 19 -1647 0
-900 3 -1640 8 -1645 8 -8 1311 -13 1319 -5 2 2 3 742 3 1645 0 1608 0 1642
19 1652 13 6 320 10 914 10 492 0 900 2 908 5 12 4 14 86 14 490 l0 484 -23
11 c-16 7 -512 10 -1564 10 l-1541 0 -62 -62z M204 6487 c-12 -7 -14 -302 -14 -2136 0 -1932 1 -2129 16 -2135 24
-9 1227 -7 1242 2 10 7 12 324 10 1605 -3 1361 -1 1597 11 1595 8 -2 19 -12
25 -23 6 -11 23 -39 39 -63 15 -24 27 -45 27 -49 0 -3 13 -25 30 -50 16 -24
30 -46 30 -48 0 -2 19 -32 43 -67 24 -35 46 -70 50 -78 4 -8 16 -28 27 -45 11
-16 23 -37 27 -45 4 -8 25 -41 48 -75 23 -33 44 -67 48 -75 4 -8 16 -28 27
-45 11 -16 23 -37 27 -45 4 -8 25 -41 48 -75 23 -33 44 -67 48 -75 4 -8 16
-28 27 -45 11 -16 23 -37 27 -45 4 -8 25 -41 48 -75 23 -33 44 -67 48 -75 4
-8 16 -28 27 -45 11 -16 23 -37 27 -45 4 -8 25 -42 48 -75 23 -34 44 -67 48
-75 4 -8 16 -28 27 -45 11 -16 23 -37 27 -45 4 -8 25 -42 48 -75 23 -34 44
-67 48 -75 4 -8 16 -28 27 -45 11 -16 23 -37 27 -45 4 -8 25 -42 48 -75 23
-34 44 -67 48 -75 4 -8 16 -28 27 -45 11 -16 23 -37 27 -45 4 -8 25 -42 48
-75 23 -34 44 -67 48 -75 4 -8 16 -28 27 -45 11 -16 24 -39 30 -50 5 -11 33
-54 60 -95 27 -41 55 -84 60 -95 6 -11 18 -32 28 -47 9 -15 37 -59 62 -98 25
-39 53 -83 62 -98 10 -15 22 -36 28 -47 5 -11 33 -54 60 -95 27 -41 55 -84 60
-95 6 -11 18 -32 28 -47 23 -35 134 -214 147 -236 27 -46 50 -78 64 -90 22
-18 2160 -18 2165 1 3 6 7 532 10 1167 l6 1155 -193 197 c-105 108 -375 382
-599 610 -223 227 -416 426 -428 441 -53 67 -51 119 -50 -1202 0 -673 3 -1242
7 -1263 5 -35 4 -40 -12 -37 -17 4 -26 15 -39 49 -4 8 -14 27 -24 41 -9 15
-43 69 -75 120 -32 52 -94 150 -137 219 -44 69 -83 132 -87 140 -4 8 -19 33
-33 55 -14 22 -30 49 -37 60 -14 23 -90 144 -115 183 -10 15 -22 36 -28 47 -5
11 -33 54 -60 95 -27 41 -55 84 -60 95 -6 11 -18 32 -28 47 -9 15 -44 70 -77
124 -33 53 -68 108 -77 123 -9 14 -23 36 -30 48 -18 30 -99 159 -120 192 -10
14 -21 33 -25 41 -4 8 -20 34 -35 56 -15 23 -28 44 -28 47 0 3 -20 35 -45 71
-25 37 -45 68 -45 71 0 2 -13 24 -30 48 -17 25 -30 47 -30 50 0 3 -19 34 -43
69 -24 35 -46 70 -50 78 -4 8 -16 29 -27 45 -11 17 -23 37 -27 45 -4 8 -25 41
-47 75 -45 65 -60 89 -76 120 -6 11 -18 32 -28 47 -9 15 -37 59 -62 99 -25 39
-53 83 -62 98 -10 14 -22 35 -28 46 -6 11 -18 32 -28 47 -9 14 -44 70 -77 123
-33 53 -68 108 -77 123 -10 15 -21 34 -26 42 -25 48 -77 120 -86 120 -586 5
-2162 3 -2172 -3z M6130 1915 c-144 -30 -175 -40 -298 -102 -173 -88 -288 -197 -410
-388 -6 -11 -15 -27 -18 -35 -3 -8 -9 -23 -14 -32 -14 -25 -45 -125 -61 -193
-18 -77 -18 -291 -1 -370 8 -33 22 -88 33 -123 17 -57 27 -80 51 -122 4 -8 13
-26 19 -40 6 -14 34 -56 63 -95 149 -198 324 -307 601 -375 218 -54 240 -53
483 9 45 12 92 25 105 30 86 34 120 50 182 90 264 170 413 477 419 866 l1 100
-515 0 -515 0 -3 -198 -2 -197 25 -10 c15 -6 116 -10 226 -10 222 0 228 -2
191 -62 -91 -147 -303 -213 -507 -159 -89 24 -122 41 -184 97 -97 87 -146 190
-156 329 -13 170 32 304 139 410 99 99 199 137 356 137 105 -1 180 -17 255
-56 37 -19 141 -106 161 -135 8 -12 20 -21 25 -21 13 0 349 334 349 347 0 5
-21 29 -47 54 -149 142 -322 225 -540 258 -96 15 -332 12 -413 -4z M12635 1924 c-11 -2 -51 -12 -90 -20 -152 -35 -312 -148 -373 -264
-81 -152 -90 -374 -21 -513 39 -80 79 -128 150 -183 79 -61 187 -115 329 -164
14 -5 50 -18 80 -30 30 -12 66 -25 80 -29 50 -16 113 -53 141 -84 23 -25 29
-41 29 -78 0 -40 -4 -51 -31 -73 -42 -36 -68 -41 -194 -40 -111 0 -169 12
-246 52 -47 24 -152 97 -168 116 -7 9 -17 16 -20 16 -4 0 -80 -72 -168 -160
-184 -181 -177 -157 -73 -242 132 -110 218 -144 537 -218 60 -14 156 -12 246
5 44 8 82 17 86 20 4 2 40 11 80 19 117 25 231 85 316 169 40 40 81 90 90 112
45 103 66 175 72 253 5 73 3 92 -22 170 -48 147 -111 233 -225 311 -54 37
-181 101 -200 101 -5 0 -24 6 -42 14 -18 8 -73 29 -123 47 -166 58 -229 95
-250 146 -29 68 5 110 108 133 109 25 270 -24 368 -111 24 -21 46 -39 49 -39
3 0 79 73 170 161 l165 160 -35 30 c-55 46 -133 98 -190 125 -139 67 -227 85
-430 89 -96 2 -184 2 -195 -1z M25 1897 l-25 -9 0 -913 0 -914 32 -6 c18 -4 249 -5 513 -3 446 4
485 5 550 24 116 34 202 82 274 154 82 81 124 163 146 283 15 82 15 94 -1 175
-9 50 -30 112 -48 147 -33 63 -129 168 -165 180 -31 10 -26 27 23 67 55 47
108 127 131 202 14 45 16 79 13 155 -5 92 -10 111 -47 191 -34 73 -117 156
-208 207 -44 25 -139 52 -203 58 -101 10 -957 11 -985 2z m828 -387 c93 -41
132 -142 88 -227 -11 -23 -33 -50 -48 -61 -41 -28 -135 -44 -248 -40 l-100 3
-3 160 c-1 87 0 165 2 172 4 10 38 13 134 13 108 0 137 -3 175 -20z m49 -708
c49 -24 74 -54 95 -112 26 -71 6 -156 -47 -204 -57 -51 -125 -67 -276 -64
l-129 3 -3 194 c-2 149 1 197 10 203 7 5 78 7 158 6 127 -3 151 -6 192 -26z M2303 1881 c-13 -13 -23 -32 -23 -42 0 -9 -6 -30 -14 -46 -8 -15 -22
-47 -30 -70 -9 -24 -22 -60 -30 -80 -8 -21 -22 -58 -31 -83 -9 -25 -23 -62
-31 -82 -8 -21 -21 -57 -30 -80 -8 -24 -22 -56 -30 -71 -8 -16 -14 -36 -14
-45 0 -9 -7 -26 -15 -36 -8 -11 -15 -29 -15 -40 0 -12 -7 -30 -15 -40 -8 -11
-15 -29 -15 -40 0 -12 -7 -30 -15 -40 -8 -11 -15 -28 -15 -37 0 -10 -6 -30
-14 -46 -8 -15 -22 -47 -30 -70 -9 -24 -22 -60 -30 -80 -8 -21 -21 -57 -30
-80 -9 -24 -22 -60 -30 -80 -28 -76 -48 -129 -61 -158 -7 -16 -19 -48 -28 -70
-8 -22 -23 -60 -32 -85 -9 -25 -23 -61 -30 -80 -21 -58 -42 -112 -64 -167 -36
-89 -54 -83 232 -83 229 0 255 2 269 18 14 16 37 76 58 147 4 17 17 55 27 85
l18 55 319 3 c286 2 321 1 338 -14 10 -10 18 -25 18 -35 0 -10 6 -33 14 -51 8
-18 24 -66 37 -106 12 -41 28 -80 36 -88 12 -11 62 -14 268 -14 173 0 256 3
261 11 3 6 2 21 -4 32 -9 21 -24 58 -57 147 -8 22 -22 58 -30 80 -8 22 -22 59
-31 83 -8 23 -22 55 -30 70 -8 16 -14 37 -14 47 0 10 -4 21 -9 24 -5 3 -21 44
-36 91 -15 47 -31 87 -36 91 -5 3 -9 14 -9 24 0 11 -7 36 -16 57 -9 21 -22 52
-29 68 -7 17 -20 47 -29 68 -9 21 -16 45 -16 55 0 9 -7 26 -15 36 -8 11 -15
29 -15 40 0 12 -7 30 -15 40 -8 11 -15 28 -15 38 0 9 -7 34 -16 55 -41 96 -47
110 -90 226 -9 23 -22 57 -30 75 -8 18 -14 39 -14 47 0 7 -6 26 -14 42 -8 15
-22 47 -30 71 -9 23 -22 59 -30 80 -8 20 -21 55 -29 77 -8 22 -18 48 -21 58
-3 9 -13 17 -23 17 -10 0 -126 2 -258 3 l-240 2 -22 -24z m292 -618 c9 -32 23
-74 30 -93 7 -19 27 -82 45 -140 35 -115 55 -172 74 -210 24 -48 17 -50 -174
-50 -187 0 -201 3 -183 43 12 26 22 55 73 207 21 63 42 126 48 140 8 21 29 85
48 148 8 27 23 9 39 -45z M3694 1897 c-12 -7 -14 -139 -14 -915 0 -693 3 -911 12 -920 15 -15
494 -17 503 -2 3 5 6 167 5 360 0 283 2 350 13 350 11 0 31 -28 102 -148 6 -9
29 -45 53 -80 23 -35 42 -65 42 -67 0 -2 19 -32 42 -67 24 -35 47 -71 53 -80
12 -21 73 -119 129 -206 22 -35 49 -65 60 -68 12 -2 143 -3 291 -2 237 3 270
5 269 19 -1 8 -34 60 -75 114 -41 55 -78 108 -84 117 -18 30 -88 131 -147 210
-32 42 -58 79 -58 83 0 3 -34 51 -76 107 -81 107 -85 125 -33 138 115 31 261
155 316 270 32 67 37 85 53 180 21 119 -27 285 -112 390 -90 113 -267 202
-428 215 -115 9 -900 11 -916 2z m826 -386 c25 -11 58 -35 75 -56 28 -34 30
-42 30 -120 0 -84 0 -84 -39 -124 -25 -25 -53 -43 -82 -50 -60 -15 -277 -14
-292 1 -13 13 -18 349 -5 361 3 4 65 7 137 6 103 0 141 -4 176 -18z M7973 1887 c-13 -10 -23 -27 -23 -37 0 -10 -6 -31 -14 -47 -26 -52
-46 -104 -46 -118 0 -7 -6 -26 -14 -42 -24 -50 -44 -97 -49 -118 -3 -11 -15
-45 -27 -75 -12 -30 -26 -69 -31 -87 -5 -18 -14 -35 -19 -38 -6 -4 -10 -15
-10 -25 0 -11 -7 -36 -16 -57 -29 -66 -42 -97 -57 -138 -8 -22 -22 -59 -31
-82 -9 -24 -23 -62 -32 -85 -41 -107 -48 -125 -60 -155 -8 -17 -14 -37 -14
-45 0 -8 -7 -23 -15 -34 -8 -10 -15 -28 -15 -39 0 -11 -7 -29 -15 -39 -8 -11
-15 -29 -15 -40 0 -12 -7 -30 -15 -40 -8 -11 -15 -29 -15 -41 0 -12 -7 -30
-15 -41 -8 -10 -15 -27 -15 -36 0 -9 -6 -29 -14 -45 -8 -15 -22 -47 -30 -70
-9 -24 -22 -60 -30 -80 -8 -21 -26 -66 -40 -101 -14 -35 -24 -68 -20 -73 3 -5
116 -9 259 -9 l254 0 17 33 c10 17 21 46 25 62 4 17 17 55 29 85 12 30 24 66
27 80 11 51 4 50 344 50 l319 0 14 -32 c19 -45 36 -97 45 -133 4 -17 13 -40
19 -52 7 -12 12 -30 12 -41 0 -10 8 -26 18 -35 16 -15 50 -17 275 -17 155 0
258 4 262 10 3 5 -6 34 -20 63 -14 30 -25 60 -25 68 0 8 -7 23 -15 33 -8 11
-15 29 -15 40 0 12 -7 30 -15 40 -8 11 -15 28 -15 38 0 17 -18 65 -46 121 -8
16 -14 34 -14 42 0 11 -20 62 -76 193 -8 18 -14 40 -14 48 0 9 -6 28 -14 42
-26 52 -46 103 -46 120 0 10 -7 27 -15 38 -8 10 -15 29 -15 41 0 12 -4 24 -10
28 -5 3 -14 20 -19 38 -5 18 -19 57 -31 87 -12 30 -25 66 -30 80 -5 14 -18 50
-30 80 -12 30 -24 64 -27 75 -3 11 -11 34 -18 50 -7 17 -20 49 -29 73 -9 23
-23 60 -31 82 -8 22 -22 58 -30 80 -39 105 -48 127 -61 158 -8 18 -14 39 -14
46 0 33 -27 37 -276 39 -226 2 -250 0 -271 -16z m290 -629 c9 -29 31 -98 48
-153 17 -55 37 -115 45 -133 8 -18 14 -39 14 -47 0 -13 12 -45 43 -112 18 -40
4 -43 -183 -43 -191 0 -199 2 -175 50 14 29 33 81 45 125 5 17 14 46 21 65 12
36 27 78 48 140 7 19 22 63 33 98 11 34 25 62 32 62 6 0 20 -24 29 -52z M9360 1890 c-13 -13 -14 -125 -10 -925 l5 -910 255 0 255 0 3 914 c1
503 -2 919 -7 924 -4 4 -116 9 -247 10 -201 2 -241 0 -254 -13z M10183 1895 c-11 -8 -13 -164 -11 -925 l3 -915 240 -3 c132 -1 250 0
263 3 l23 6 -3 454 c-3 410 -1 455 13 455 9 0 30 -21 48 -47 17 -27 61 -84 97
-128 35 -44 98 -123 139 -175 41 -52 102 -129 135 -170 121 -151 186 -233 233
-293 86 -112 73 -107 272 -107 95 0 180 3 189 6 14 6 16 96 16 919 0 610 -3
916 -10 920 -13 8 -498 8 -511 0 -6 -4 -8 -185 -7 -476 2 -314 0 -469 -7 -469
-6 0 -41 39 -77 88 -37 48 -95 121 -128 162 -102 127 -182 228 -250 314 -36
46 -85 107 -108 137 -24 30 -76 95 -115 146 -40 51 -82 95 -93 98 -37 11 -336
11 -351 0z"/>
    <path fill="#0046BE" d="M4085 6500 c-4 -6 31 -47 77 -93 46 -45 209 -210 363 -367 840 -853
1323 -1346 1348 -1374 l29 -31 -7 -515 c-14 -1139 -15 -1910 -2 -1910 18 0 26
8 86 80 30 36 62 72 70 81 9 8 46 49 82 90 37 41 129 144 205 230 210 235 389
436 463 519 176 198 266 296 279 304 10 6 19 4 26 -6 10 -14 54 -64 201 -228
28 -31 82 -91 120 -135 39 -43 94 -106 124 -139 150 -168 366 -412 517 -582
78 -87 154 -174 170 -192 l29 -32 874 0 c480 -1 876 2 879 4 4 4 -151 176
-258 287 -8 9 -67 71 -130 140 -149 160 -267 286 -350 374 -57 61 -307 330
-335 361 -5 7 -42 45 -80 85 -39 41 -129 137 -200 214 -71 77 -157 169 -190
205 -34 36 -128 137 -210 225 -82 88 -173 184 -202 214 -29 29 -53 59 -53 65
0 7 473 485 1051 1063 631 630 1049 1055 1045 1062 -5 8 -246 11 -888 11 -823
0 -881 -1 -901 -18 -12 -9 -62 -60 -112 -112 -49 -52 -136 -144 -194 -205
-145 -153 -203 -214 -391 -415 -159 -169 -231 -245 -395 -415 -42 -44 -84 -90
-92 -102 -28 -42 -1 -65 -338 292 -98 105 -213 226 -255 270 -42 44 -116 123
-166 175 -209 222 -403 427 -452 477 l-53 53 -889 0 c-594 0 -891 -3 -895 -10z M12560 3185 c-146 -33 -268 -126 -335 -255 -10 -19 -22 -44 -28 -54
-16 -32 -37 -147 -37 -201 0 -55 22 -170 38 -201 5 -10 18 -37 28 -59 31 -65
150 -178 224 -213 205 -95 447 -51 600 110 161 168 185 453 56 658 -110 175
-333 263 -546 215z"/>
  </g>
</svg>
