<svg xmlns="http://www.w3.org/2000/svg" viewBox="0 0 960 540" role="img" aria-label="Price alerts and price history chart"><defs><linearGradient id="bg" x1="0" y1="0" x2="1" y2="1"><stop stop-color="#f5fbff"/><stop offset="1" stop-color="#eef7e9"/></linearGradient><filter id="s"><feDropShadow dx="0" dy="18" stdDeviation="20" flood-color="#0d1b2a" flood-opacity=".13"/></filter></defs><rect width="960" height="540" rx="28" fill="url(#bg)"/><rect x="98" y="96" width="510" height="330" rx="26" fill="#fff" stroke="#d8e4ee" filter="url(#s)"/><path d="M152 350 232 294 306 318 390 222 496 256 554 166" fill="none" stroke="#0d46be" stroke-width="14" stroke-linecap="round" stroke-linejoin="round"/><path d="M152 370h402" stroke="#d8e4ee" stroke-width="4"/><path d="M152 294h402M152 222h402M152 150h402" stroke="#d8e4ee" stroke-width="3" opacity=".65"/><g fill="#ffe000" stroke="#0d1b2a" stroke-width="5"><circle cx="232" cy="294" r="14"/><circle cx="390" cy="222" r="14"/><circle cx="554" cy="166" r="14"/></g><rect x="660" y="132" width="190" height="276" rx="28" fill="#0d1b2a" filter="url(#s)"/><rect x="678" y="168" width="154" height="194" rx="18" fill="#fff"/><circle cx="755" cy="392" r="13" fill="#fff" opacity=".55"/><path d="M744 228c0-22 22-31 22-31s22 9 22 31v37l18 20h-80l18-20z" fill="#ffe000"/><path d="M749 297h34" stroke="#0d1b2a" stroke-width="9" stroke-linecap="round"/><rect x="704" y="314" width="102" height="18" rx="9" fill="#2ba24b"/><path d="M706 428h126" stroke="#0d46be" stroke-width="16" stroke-linecap="round" opacity=".2"/></svg>